<svg xmlns="http://www.w3.org/2000/svg" version="1.1" xmlns:xlink="http://www.w3.org/1999/xlink" viewBox="0 0 8.221681532983697 8.221681532983697"><g transform="matrix(0.8571428571428571,0,0,0.8571428571428571,2.847553956700024,2.877015548430794)"><g><path d=" M -1.246743675326614 1.9354978191770897 Q -1.3116143102780569 1.9395966874351103 -1.375534878844006 1.9190866675861242 Q -1.4394554474099552 1.8985766477371384 -1.4933177426507331 1.8548862237131571 Q -1.5471800378915108 1.8111957996891759 -1.58187585286744 1.74575345542221 Q -1.6165716678433693 1.680311111155244 -1.6219317263346267 1.5954802808341262 Q -1.6283637965241358 1.4936832844487846 -1.5907409042498775 1.4151545127983916 Q -1.5531180119756196 1.3366257411479987 -1.4855905301132464 1.2952852138977704 L -1.3704056274163536 1.4373043611656913 Q -1.4045161956616805 1.4524855710641449 -1.421933423227156 1.4781349411135718 Q -1.439350650792632 1.5037843111629985 -1.445038527973897 1.532700535902249 Q -1.4507264051551623 1.5616167606414995 -1.4490237983402923 1.5885630243905604 Q -1.4463752988504943 1.6304794346668776 -1.4279848225648262 1.659878250663211 Q -1.409594346279158 1.6892770666595447 -1.3814184220526908 1.7070356503301074 Q -1.3532424978262236 1.7247942340006703 -1.3197091101054728 1.7321943629164247 Q -1.2861757223847217 1.7395944918321793 -1.2532414000247583 1.7375135279473382 Q -1.2163150385908599 1.7351803260158496 -1.1830763610906931 1.7220581951660252 Q -1.1498376835905262 1.7089360643162013 -1.124714674470606 1.6863067821190034 Q -1.0995916653506859 1.6636774999218058 -1.0865448339291164 1.632292309308124 Q -1.0734980025075467 1.6009071186944421 -1.0758942639506972 1.5629827474920601 Q -1.0775968707655672 1.5360364837429992 -1.0878456201242108 1.50862821607458 Q -1.0980943694828544 1.481219948406161 -1.1185069238522682 1.4594638544526104 Q -1.1389194782216818 1.4377077604990594 -1.1716125049531039 1.4277495476504338 L -1.0868280393013832 1.2630753408536433 Q -1.0336072815953297 1.2807544513853855 -0.9935910040900006 1.3273237281096 Q -0.9535747265846714 1.3738930048338147 -0.9302038463762035 1.4345399500024005 Q -0.9068329661677357 1.4951868951709861 -0.9029863359563627 1.5560654910484943 Q -0.8980046345350763 1.63490826275871 -0.9253115442284627 1.7022642772117433 Q -0.9526184539218492 1.7696202916647765 -1.0020186399633075 1.8203363800300016 Q -1.0514188260047659 1.8710524683952265 -1.1151489185372427 1.901131120389655 Q -1.1788790110697196 1.9312097723840838 -1.246743675326614 1.9354978191770897 M -0.9062444861167235 1.1581067377982217 L -1.5999861665014592 1.007035625745112 L -1.558494804740394 0.8165009388788819 L -1.0308602872646795 0.931400094524909 L -0.9623463463053817 0.616773585956057 L -0.7962391833963606 0.6529455423631396 L -0.9062444861167235 1.1581067377982217 M -0.7497027101396504 0.5701354108940987 L -1.3998503119358596 0.28481437087314626 L -1.3214874910850347 0.10625270559108879 L -0.6713398892888255 0.3915737456120413 L -0.7497027101396504 0.5701354108940987 M -0.7791971951305169 -0.11478079315143352 L -0.5009641743650178 0.0959023484515561 L -0.6186811159483502 0.2513620591944567 L -1.1847139089096808 -0.17724834349357382 L -1.0929550621370319 -0.29842719494445014 L -0.633107452242484 -0.3077102803298025 L -0.9209072244383154 -0.5256375414148434 L -0.8031902828549831 -0.6810972521577441 L -0.23715748989365254 -0.25248684946971356 L -0.3307273665368141 -0.12891631016125404 L -0.7791971951305169 -0.11478079315143352 M -0.11647260704939566 -0.34120318884042566 L -0.5673916862251729 -0.8896300153499147 L -0.41676741697256675 -1.0134739877996 L 0.034151662203210476 -0.4650471612901109 L -0.11647260704939566 -0.34120318884042566 M -0.0514226712469453 -0.8665431940958983 Q -0.08080786092316386 -0.9245217300181916 -0.08720940284112502 -0.9913462783598945 Q -0.09361094475908618 -1.0581708267015975 -0.07474407529969174 -1.1249094304988163 Q -0.05587720584029729 -1.1916480342960354 -0.009457161384449103 -1.249368736584877 Q 0.03696288307139911 -1.3070894388737184 0.1127809685082442 -1.3455162253733888 Q 0.20376267103245832 -1.3916283691729934 0.2907663524375904 -1.388077394383688 Q 0.3777700338427224 -1.3845264195943825 0.44241878932672474 -1.3388149504168374 L 0.35743460860760884 -1.1769054416549962 Q 0.33001610698210937 -1.2022476153702182 0.2995731418445042 -1.208119231300314 Q 0.2691301767068989 -1.2139908472304095 0.24031821983986817 -1.2077964028249477 Q 0.21150626297283742 -1.2016019584194857 0.1874228711281925 -1.1893958027078255 Q 0.1499598171476338 -1.1704084493785767 0.13021382151729008 -1.1419023858733073 Q 0.11046782588694637 -1.1133963223680379 0.10528042082191841 -1.0804973736205274 Q 0.10009301575689045 -1.047598424873017 0.10653786449617395 -1.013868409682867 Q 0.11298271323545742 -0.9801383944927169 0.12790134799415298 -0.9507031377937063 Q 0.14462830211753896 -0.9176999711917855 0.1698107689504106 -0.892345615269946 Q 0.1949932357832823 -0.8669912593481065 0.2257048785646354 -0.8528475329059498 Q 0.2564165213459885 -0.8387038064637932 0.2904030319732689 -0.8391125794836434 Q 0.3243895426005493 -0.8395213525034937 0.3582846866781977 -0.8567003864680522 Q 0.3823680785228426 -0.8689065421797123 0.40350076919324807 -0.8891465862762294 Q 0.42463345986365353 -0.9093866303727466 0.4365594248231088 -0.9367320387585404 Q 0.4484853897825641 -0.9640774471443343 0.4447225645737722 -0.9980456844616883 L 0.6294945681258552 -0.9851885190140096 Q 0.6342711928765508 -0.9293120136115505 0.6072912506892848 -0.8741569347921726 Q 0.580311308502019 -0.8190018559727947 0.533824261909774 -0.7735793450434059 Q 0.487337215317529 -0.7281568341140171 0.43292658929814604 -0.7005799638024889 Q 0.3624603687156665 -0.6648656563498541 0.28979532905857264 -0.6633517172384682 Q 0.21713028940147883 -0.6618377781270823 0.15102716764285717 -0.6871928031470826 Q 0.0849240458842355 -0.712547828167083 0.03212140191851328 -0.7592182769567526 Q -0.02068124204720892 -0.8058887257464222 -0.0514226712469453 -0.8665431940958983 M 0.6852316634240698 -1.2104766040083397 Q 0.6739802203568235 -1.2744953905393615 0.6872916831000101 -1.3402928445906903 Q 0.7006031458431967 -1.4060902986420194 0.7380655976974806 -1.4644560822919068 Q 0.7755280495517645 -1.5228218659417943 0.8367295738178098 -1.564545641268491 Q 0.8979310980838551 -1.6062694165951878 0.981647972778268 -1.6209828421446637 Q 1.0821082224115635 -1.638638952804035 1.1643176702071882 -1.609936048889301 Q 1.246527118002813 -1.5812331449745674 1.2950855197928908 -1.5186945039948228 L 1.166683270131443 -1.3885028672362383 Q 1.1478210434813367 -1.4207242329087237 1.1204020021230643 -1.435196488123214 Q 1.0929829607647918 -1.4496687433377042 1.0636149417011231 -1.452122201361799 Q 1.0342469226374544 -1.4545756593858932 1.0076545036168763 -1.4499019830348834 Q 0.9662885184737545 -1.442631819822201 0.9391050695724223 -1.421101373802003 Q 0.9119216206710901 -1.399570927781805 0.8973896610627936 -1.3696030758410531 Q 0.8828577014544972 -1.3396352239003009 0.8792133806725653 -1.3054889367516462 Q 0.8755690598906334 -1.2713426496029916 0.8812813309863122 -1.238840804133396 Q 0.8876859985784371 -1.202399341031122 0.9044053172880927 -1.1708166815185832 Q 0.9211246359977483 -1.1392340220060444 0.9463947553582635 -1.116769136795892 Q 0.9716648747187785 -1.0943042515857397 1.0043009460296224 -1.0848102087485965 Q 1.0369370173404664 -1.0753161659114534 1.0743633848509098 -1.0818939326276897 Q 1.100955803871488 -1.0865676089786995 1.1270617847452882 -1.0997860719232624 Q 1.1531677656190884 -1.1130045348678252 1.1725316836488702 -1.135698998477611 Q 1.191895601678652 -1.1583934620873968 1.1981752826051193 -1.1919875926381607 L 1.3712195002946705 -1.1259444345957779 Q 1.3595376621769069 -1.0710943237646195 1.317682013768723 -1.0261710035808829 Q 1.2758263653605393 -0.9812476833971464 1.2181377249742003 -0.9513099017429281 Q 1.1604490845878614 -0.9213721200887097 1.100369915689518 -0.9108130735179093 Q 1.0225624674441225 -0.8971382427131022 0.9525986062995044 -0.9168247389411412 Q 0.8826347451548863 -0.9365112351691804 0.8267640817509793 -0.979996508202787 Q 0.7708934183470721 -1.0234817812363937 0.7339479111053614 -1.0834924427446015 Q 0.6970024038636506 -1.1435031042528094 0.6852316634240698 -1.2104766040083397 M 1.8019399064640726 -0.917251111980461 Q 1.7217207644031156 -0.9284711497256741 1.6605818480476322 -0.9678193759484303 Q 1.5994429316921486 -1.0071676021711864 1.5595345699141612 -1.0647507825296667 Q 1.5196262081361738 -1.122333962888147 1.503306508284468 -1.189744402708328 Q 1.4869868084327622 -1.257154842528509 1.4965446183638698 -1.325489667247102 Q 1.5063794662639947 -1.3958052115227555 1.5419843952928771 -1.4554482247669591 Q 1.5775893243217596 -1.5150912380111627 1.6326169822981753 -1.5583862360782677 Q 1.6876446402745908 -1.6016812341453726 1.7575206160976133 -1.6211901552529167 Q 1.8273965919206359 -1.6406990763604612 1.905635014424532 -1.6297560765842656 Q 1.985854156485489 -1.6185360388390526 2.0469930728409724 -1.5791878126162966 Q 2.108131989196456 -1.5398395863935401 2.147475911592924 -1.481830485638049 Q 2.1868198339893916 -1.423821384882558 2.2031395338410977 -1.3564109450623771 Q 2.2194592336928034 -1.2890005052421962 2.2100399427462047 -1.2216560403021335 Q 2.2003436138305883 -1.1523308558050103 2.165233864690971 -1.0926185830685522 Q 2.1301241155513537 -1.0329063103320941 2.075096457574938 -0.9896113122649893 Q 2.0200687995985227 -0.9463163141978844 1.9506187441725107 -0.9262429537088206 Q 1.8811686887464991 -0.9061695932197568 1.8019399064640726 -0.917251111980461 M 1.6923588165438581 -1.2960821887572982 Q 1.6873721331015412 -1.2604292367302063 1.6926353449057996 -1.225866994304352 Q 1.697898556710058 -1.1913047518784978 1.7140349991911814 -1.162289838057268 Q 1.7301714416723049 -1.133274924236038 1.7582303706575935 -1.1136995186412995 Q 1.786289299642882 -1.0941241130465609 1.8278844103411562 -1.088306315697191 Q 1.8694795210394302 -1.0824885183478212 1.9023969779260113 -1.0940401862845337 Q 1.9353144348125926 -1.1055918542212462 1.958435722567926 -1.1301256279329086 Q 1.9815570103232596 -1.1546594016445713 1.9956058142003426 -1.1865205238725038 Q 2.009654618077426 -1.2183816461004362 2.014502782535234 -1.253044238348998 Q 2.019489465977551 -1.28869719037609 2.014156994681038 -1.3227642529126789 Q 2.008824523384525 -1.356831315449268 1.9926880809034018 -1.3858462292704978 Q 1.9765516384222783 -1.4148611430917277 1.94792827005547 -1.4340106282894556 Q 1.9193049016886619 -1.4531601134871834 1.878700150768918 -1.4588393918520444 Q 1.8371050400706441 -1.464657189201414 1.8046827630733282 -1.4530362617724473 Q 1.772260486076012 -1.4414153343434803 1.7487825374159223 -1.4179411799026027 Q 1.7253045887558323 -1.3944670254617249 1.7112557848787493 -1.3626059032337925 Q 1.6972069810016661 -1.33074478100586 1.6923588165438581 -1.2960821887572982 M 2.5979123213591286 -1.056188388782596 L 2.4406566690760867 -0.7446251370582712 L 2.2665740499177964 -0.83249004306169 L 2.586492425622552 -1.4663293230739267 L 2.7221875954279886 -1.3978397553174156 L 2.8139533153914686 -0.9471457874860454 L 2.9766160388131824 -1.2694218157739572 L 3.1506986579714726 -1.1815569097705385 L 2.830780282266717 -0.5477176297583017 L 2.6924069183203834 -0.6175589652994808 L 2.5979123213591286 -1.056188388782596 M 3.3382701577801037 -0.5644597540642375 L 3.0894785734922627 -0.31970733305977417 L 2.952725788117276 -0.4587169575185965 L 3.458863395121193 -0.9566373555505995 L 3.565460438080157 -0.84828113545962 L 3.5079838709121383 -0.391945245761494 L 3.7653298936282145 -0.6451132227890335 L 3.9020826790032013 -0.5061035983302111 L 3.395945071999284 -0.008183200298208182 L 3.2872441400345513 -0.11867802999624644 L 3.3382701577801037 -0.5644597540642375 M 3.8610985931480437 0.4874447752218095 L 3.7108052221613836 0.5668922587405848 L 3.4743321241584404 0.11954846039205444 L 4.1020279676909635 -0.2122616178334188 L 4.334295022448795 0.22712547263934713 L 4.184001651462134 0.3065729561581224 L 4.042865533681722 0.03958120299358456 L 3.9544576683954507 0.08631501682815826 L 4.075030908088651 0.314407309266737 L 3.935346480936343 0.38824673512536345 L 3.814773241243143 0.1601544426867847 L 3.71575643212252 0.21249631418150725 L 3.8610985931480437 0.4874447752218095 M 4.093787410504227 0.5543388475913478 Q 4.157378919015217 0.5408807628354634 4.223597262991465 0.5519094037781788 Q 4.2898156069677125 0.5629380447208943 4.34944171339213 0.5983601766819169 Q 4.4090678198165465 0.6337823086429395 4.452882615672046 0.6935046969419766 Q 4.496697411527545 0.7532270852410137 4.5142964454390855 0.8363852117553865 Q 4.535415286132935 0.9361749635726337 4.5095718296672445 1.0193276289412552 Q 4.483728373201553 1.1024802943098768 4.422905966127682 1.1531718596609317 L 4.2883528195001155 1.0293475860607177 Q 4.3199027840548565 1.0093826233361203 4.33341840844239 0.9814796145841037 Q 4.346934032829923 0.9535766058320871 4.34837066203438 0.9241413192438968 Q 4.349807291238838 0.8947060326557064 4.344217009878701 0.8682910983511409 Q 4.335521016651822 0.827201200544039 4.3130636093366554 0.8007783911422985 Q 4.290606202021489 0.7743555817405581 4.260153842290158 0.7608684105473974 Q 4.229701482558828 0.7473812393542367 4.19544961200431 0.744919661909464 Q 4.161197741449794 0.7424580844646912 4.128912821744214 0.7492906505715249 Q 4.092714578437957 0.7569514065094898 4.061728849867819 0.7747526599759662 Q 4.030743121297681 0.7925539134424426 4.00916534905664 0.8185856199772388 Q 3.987587576815599 0.8446173265120349 3.979227560775439 0.8775621308339348 Q 3.9708675447352793 0.9105069351558346 3.978735348131027 0.94768350936226 Q 3.9843256294911633 0.9740984436668255 3.99843877096052 0.999731805480406 Q 4.012551912429877 1.0253651672939865 4.0359022910620945 1.0439328763000015 Q 4.059252669694313 1.0625005853060168 4.093043827993117 1.067615037458995 L 4.0330229382645255 1.24283915907525 Q 3.9778017348422927 1.2330606779764066 3.9314581661046777 1.1927832198060861 Q 3.885114597367062 1.1525057616357657 3.853200202431229 1.0958866712520474 Q 3.821285807495396 1.039267580868329 3.8086559125706425 0.9795893959580144 Q 3.7922991634057985 0.9023012548446563 3.809554978276349 0.8316985859634214 Q 3.8268107931468998 0.7610959170821865 3.8683384111610923 0.7037552077905558 Q 3.909866029175285 0.646414498498925 3.9685634692340064 0.6074162866097528 Q 4.027260909292728 0.5684180747205806 4.093787410504227 0.5543388475913478 M 4.367308369555758 1.9659851420681174 L 4.383028427521472 1.76259173072558 L 3.844634103379462 1.7209798125810418 L 3.859660629376101 1.5265596399742045 L 4.398054953518111 1.568171558118743 L 4.413852070591501 1.3637811202500167 L 4.5833465800436155 1.3768811685547788 L 4.5368028790078725 1.9790851903728794 L 4.367308369555758 1.9659851420681174" fill="#ffffff" fill-rule="nonzero"></path></g><g transform="matrix(1,0,0,1,0,0)" clip-path="url(#SvgjsClipPath25326)"><g clip-path="url(#SvgjsClipPath25322ad82943f-9dae-4db7-ba0d-146a28ea0675)"><path d=" M 2.3202279219684225 1.1224252015378842 C 2.5283544368992934 1.0987330413443521 2.836935711050745 1.033707173982412 2.9403064284489853 0.9584754529986426 C 2.71205980209222 0.9906238919074044 2.1099144384042994 0.9953623239461109 1.8523624323619952 0.6828445062548132 C 1.5948104263196907 0.37032668856351564 1.8176625300477767 0.9212240872789662 1.8880829200383977 0.9866144494131144 C 2.005628046929894 1.0923976097444807 2.1633020958580236 1.1419500309916308 2.3202279219684225 1.1224252015378842 Z" fill="#c84449" transform="matrix(1,0,0,1,0,0)" fill-rule="nonzero"></path></g><g clip-path="url(#SvgjsClipPath25322ad82943f-9dae-4db7-ba0d-146a28ea0675)"><path d=" M 1.4021384897304472 0.001166383271066196 C 1.4021384897304472 0.001166383271066196 1.4306419809171258 0.7998473281336406 1.810372634603613 1.0248135015405322 C 1.9650129009866273 1.1124779430567469 2.144217237116927 1.146781675162318 2.320300820922864 1.122425201537884 C 1.96790727515199 1.1139689228226544 1.9176069965872604 0.6944354400110336 1.8645365577537496 0.516853586991206 C 1.8263407240762013 0.2684546200959312 1.644917382998803 0.06612311847500602 1.4021384897304472 0.001166383271066065 Z" fill="#e37f7c" transform="matrix(1,0,0,1,0,0)" fill-rule="nonzero"></path></g><g clip-path="url(#SvgjsClipPath25322ad82943f-9dae-4db7-ba0d-146a28ea0675)"><path d=" M 1.3512550195301838 0.6404173147697806 C 1.3930261204252408 0.4352067580165726 1.426486740513954 0.12159545600865046 1.3869026082521447 0 C 1.34709977912701 0.22700734413125748 1.1654355846584494 0.8010866103591485 0.7886208891496308 0.949581780556763 C 0.41180619364081017 1.0980769507543773 1.0046204911601992 1.0562329509048778 1.0885271877225238 1.0094318221533467 C 1.2254826688356693 0.9303582726591673 1.3213500081135419 0.7957077533959627 1.3512550195301838 0.6404173147697806 Z" fill="#c84449" transform="matrix(1,0,0,1,0,0)" fill-rule="nonzero"></path></g><g clip-path="url(#SvgjsClipPath25322ad82943f-9dae-4db7-ba0d-146a28ea0675)"><path d=" M 0.001239282225509224 1.1670393616561658 C 0.001239282225509224 1.1670393616561658 0.7695942620403631 1.3867568103432597 1.1008471110231617 1.0952338915311535 C 1.232008238580836 0.9752491185945035 1.320009356287834 0.8154124451231866 1.3512550195301838 0.6404173147697806 C 1.2346166924235653 0.9729823449325283 0.8197487426962092 0.8911897180490117 0.6345853984144502 0.8866699828736302 C 0.38655631621287184 0.8463025054296925 0.13810304949000846 0.9562876877289715 0.001239282225509224 1.1670393616561658 Z" fill="#e37f7c" transform="matrix(1,0,0,1,0,0)" fill-rule="nonzero"></path></g><g clip-path="url(#SvgjsClipPath25322ad82943f-9dae-4db7-ba0d-146a28ea0675)"><path d=" M 0.5979901232847491 1.4156976952565896 C 0.41574273718065674 1.3124727757672316 0.12786476609063072 1.1838061211777424 0.00021869686332725161 1.183879020132184 C 0.20367967870993475 1.2919881695691318 0.6936335515121776 1.6419760498434306 0.7183462970678911 2.046346550131191 C 0.7430590426236067 2.450717050418951 0.8864512860103068 1.8739405228767194 0.8678620526276893 1.7796092758292414 C 0.8349859400834816 1.6248860340934288 0.7365012941716685 1.492083399735848 0.5979901232847491 1.4156976952565896 Z" fill="#c84449" transform="matrix(1,0,0,1,0,0)" fill-rule="nonzero"></path></g><g clip-path="url(#SvgjsClipPath25322ad82943f-9dae-4db7-ba0d-146a28ea0675)"><path d=" M 0.6816781229837504 2.862231648241992 C 0.6816781229837504 2.862231648241992 1.1281113199843331 2.199288556549745 0.9531538293244043 1.7942619656720105 C 0.8796438987511098 1.632304852983572 0.7548213771327429 1.4990788446881051 0.5979901232847512 1.4151874025754987 C 0.8781408052039613 1.6291458338617026 0.6722012589063374 1.998379038108594 0.6107474403120374 2.1733365287685227 C 0.49573100130301423 2.396724288703085 0.5235559961433609 2.6669670443467384 0.6816781229837504 2.862231648241992 Z" fill="#e37f7c" transform="matrix(1,0,0,1,0,0)" fill-rule="nonzero"></path></g><g clip-path="url(#SvgjsClipPath25322ad82943f-9dae-4db7-ba0d-146a28ea0675)"><path d=" M 1.0945049019867383 2.3818275384716037 C 0.9401049164793512 2.523324409042821 0.7286979485986048 2.757402951754918 0.6891138163367952 2.878925508809127 C 0.8549589376915198 2.718547809037525 1.3392266920473128 2.361342932273504 1.731568864852205 2.4624537820840544 C 2.123911037657095 2.563564631894605 1.6195231718754084 2.2492243403422663 1.5240255415568633 2.237779204494929 C 1.3667347115898005 2.22121350380553 1.2100030504981567 2.2737765999218036 1.0945049019867383 2.3818275384716037 Z" fill="#c84449" transform="matrix(1,0,0,1,0,0)" fill-rule="nonzero"></path></g><g clip-path="url(#SvgjsClipPath25322ad82943f-9dae-4db7-ba0d-146a28ea0675)"><path d=" M 2.4962059979905353 2.7493840667663374 C 2.4962059979905353 2.7493840667663374 2.003773560737278 2.119974494117244 1.5644844612719713 2.161162403376769 C 1.3878388429556918 2.1810961537498534 1.2226730383305655 2.2586449191601616 1.0945049019867383 2.3818275384716037 C 1.38449694275557 2.1815741106204274 1.6718646211645019 2.4911759701340594 1.8190476101821673 2.6038777537008295 C 1.996018555899721 2.7822296951725796 2.261591232860218 2.8392953710486855 2.4962059979905376 2.7493840667663374 Z" fill="#e37f7c" transform="matrix(1,0,0,1,0,0)" fill-rule="nonzero"></path></g><g clip-path="url(#SvgjsClipPath25322ad82943f-9dae-4db7-ba0d-146a28ea0675)"><path d=" M 2.164880250053293 2.1988511628230953 C 2.2517758037477256 2.389481928687976 2.408945949523894 2.6629259067985562 2.512462464831018 2.7383034256912087 C 2.4113516150204686 2.5312703950769597 2.2208666470644705 1.9600341880722925 2.438397127118315 1.6184296875587818 C 2.6559276071721616 1.2768251870452711 2.200965232501904 1.6591073041372153 2.1605792117412377 1.7462944536494127 C 2.0963675550543197 1.8906430526170768 2.09793670028174 2.05574904536011 2.164880250053293 2.1988511628230953 Z" fill="#c84449" transform="matrix(1,0,0,1,0,0)" fill-rule="nonzero"></path></g><g clip-path="url(#SvgjsClipPath25322ad82943f-9dae-4db7-ba0d-146a28ea0675)"><path d=" M 2.9476692228475905 0.9793974529233925 C 2.9476692228475905 0.9793974529233925 2.1968099920987303 1.2532059258061807 2.1002188774635613 1.6837471507384885 C 2.0646626926806477 1.8578919901698527 2.0873844825019683 2.0388978152853716 2.164880250053293 2.198851162823095 C 2.06413389501495 1.8611103068949915 2.4475094964235216 1.6836013528296054 2.6000141091154236 1.5783352626158815 C 2.824372052935758 1.4652473063279288 2.9607452045189326 1.230304590159471 2.9476692228475905 0.9793974529233925 Z" fill="#e37f7c" transform="matrix(1,0,0,1,0,0)" fill-rule="nonzero"></path></g></g><g><path d=" M -0.7040280887118775 1.439462754404563 A 2.1778627001356727 2.1778627001356727 0 0 1 3.651697311559468 1.439462754404563 A 2.1778627001356727 2.1778627001356727 0 0 1 -0.7040280887118775 1.439462754404563 Z M -0.6540280887118777 1.439462754404563 A 2.127862700135673 2.127862700135673 0 0 0 3.601697311559468 1.439462754404563 A 2.127862700135673 2.127862700135673 0 0 0 -0.6540280887118777 1.439462754404563 Z" fill="#ffffff" fill-rule="nonzero"></path></g><g><path d=" M -1.9768660273194114 1.439462754404563 A 3.4507006387432066 3.4507006387432066 0 0 1 4.924535250167002 1.439462754404563 A 3.4507006387432066 3.4507006387432066 0 0 1 -1.976866027319411 1.439462754404563 Z M -1.9268660273194116 1.439462754404563 A 3.400700638743207 3.400700638743207 0 0 0 4.874535250167002 1.439462754404563 A 3.400700638743207 3.400700638743207 0 0 0 -1.926866027319412 1.439462754404563 Z" fill="#ffffff" fill-rule="nonzero"></path></g><g transform="matrix(-0.5515035941238887,-0.8341725155316693,0.8341725155316693,-0.5515035941238887,-3.7364526726080074,3.1753186059272953)"><g clip-path="url(#SvgjsClipPath25327)"><path d=" M -1.0143357074205495 2.710265749811275 C -0.9967101074205494 2.710265749811275 -0.9873465074205494 2.6992497498112753 -0.9873465074205494 2.683827349811275 C -0.9873465074205494 2.6755653498112753 -0.9892743074205494 2.668404949811275 -0.9967101074205494 2.6535333498112754 C -1.0071753074205494 2.6328783498112753 -1.0091031074205494 2.6262687498112753 -1.0110309074205495 2.607266149811275 C -0.9975363074205494 2.608643149811275 -0.9859695074205495 2.611672549811275 -0.9763305074205495 2.6160789498112753 C -0.9515445074205494 2.627370349811275 -0.9443841074205495 2.630399749811275 -0.9339189074205495 2.630399749811275 C -0.9195981074205495 2.630399749811275 -0.9080313074205495 2.620760749811275 -0.9080313074205495 2.6034105498112754 C -0.9080313074205495 2.5863357498112753 -0.9193227074205494 2.5764213498112754 -0.9339189074205495 2.5764213498112754 C -0.9421809074205495 2.5764213498112754 -0.9523707074205494 2.5794507498112753 -0.9647637074205495 2.585234149811275 L -0.9763305074205495 2.590742149811275 C -0.9870711074205494 2.5956993498112753 -0.9986379074205495 2.598728749811275 -1.0110309074205495 2.6001057498112754 C -1.0091031074205494 2.5835817498112754 -1.0046967074205495 2.5689855498112752 -0.9978117074205495 2.5557663498112753 C -0.9909267074205494 2.5428225498112753 -0.9873465074205494 2.531806549811275 -0.9873465074205494 2.5229937498112753 C -0.9873465074205494 2.508672949811275 -0.9956085074205494 2.4971061498112754 -1.0143357074205495 2.4971061498112754 C -1.0333383074205496 2.4971061498112754 -1.0418757074205494 2.508397549811275 -1.0418757074205494 2.5229937498112753 C -1.0418757074205494 2.532081949811275 -1.0396725074205495 2.537865349811275 -1.0270041074205494 2.565405349811275 C -1.0225977074205495 2.575044349811275 -1.0195683074205495 2.5866111498112754 -1.0181913074205495 2.6001057498112754 C -1.0316859074205493 2.598728749811275 -1.0454559074205494 2.594597749811275 -1.0600521074205493 2.587161949811275 C -1.0743731369205494 2.5800015498112754 -1.0862153369205494 2.5764213498112754 -1.0953035369205495 2.5764213498112754 C -1.1096243369205494 2.5764213498112754 -1.1211911369205494 2.5860603498112753 -1.1211911369205494 2.6034105498112754 C -1.1211911369205494 2.620760749811275 -1.1098997369205494 2.630399749811275 -1.0953035369205495 2.630399749811275 C -1.0853891369205495 2.630399749811275 -1.0793303369205494 2.628196549811275 -1.0528917074205495 2.6160789498112753 C -1.0432527074205495 2.611672549811275 -1.0316859074205493 2.608643149811275 -1.0181913074205495 2.607266149811275 C -1.0201191074205493 2.623790149811275 -1.0245255074205495 2.638386349811275 -1.0314105074205495 2.651605549811275 C -1.0382955074205493 2.664549349811275 -1.0418757074205494 2.675289949811275 -1.0418757074205494 2.683827349811275 C -1.0418757074205494 2.6989743498112753 -1.0325121074205494 2.710265749811275 -1.0143357074205495 2.710265749811275 Z" fill="#ffffff" transform="matrix(1,0,0,1,0,0)" fill-rule="nonzero"></path></g></g><g transform="matrix(0.5515035941238887,-0.8341725155316693,-0.8341725155316693,-0.5515035941238887,3.9393445829036327,7.326910399309865)"><g clip-path="url(#SvgjsClipPath25328)"><path d=" M 3.9625626152681406 2.710265749811275 C 3.9801882152681403 2.710265749811275 3.98955181526814 2.6992497498112753 3.98955181526814 2.683827349811275 C 3.98955181526814 2.6755653498112753 3.9876240152681404 2.668404949811275 3.9801882152681403 2.6535333498112754 C 3.96972301526814 2.6328783498112753 3.9677952152681404 2.6262687498112753 3.9658674152681406 2.607266149811275 C 3.9793620152681406 2.608643149811275 3.9909288152681404 2.611672549811275 4.00056781526814 2.6160789498112753 C 4.02535381526814 2.627370349811275 4.03251421526814 2.630399749811275 4.042979415268141 2.630399749811275 C 4.057300215268141 2.630399749811275 4.0688670152681405 2.620760749811275 4.0688670152681405 2.6034105498112754 C 4.0688670152681405 2.5863357498112753 4.05757561526814 2.5764213498112754 4.042979415268141 2.5764213498112754 C 4.03471741526814 2.5764213498112754 4.02452761526814 2.5794507498112753 4.01213461526814 2.585234149811275 L 4.00056781526814 2.590742149811275 C 3.98982721526814 2.5956993498112753 3.9782604152681404 2.598728749811275 3.9658674152681406 2.6001057498112754 C 3.9677952152681404 2.5835817498112754 3.9722016152681405 2.5689855498112752 3.9790866152681406 2.5557663498112753 C 3.9859716152681406 2.5428225498112753 3.98955181526814 2.531806549811275 3.98955181526814 2.5229937498112753 C 3.98955181526814 2.508672949811275 3.9812898152681404 2.4971061498112754 3.9625626152681406 2.4971061498112754 C 3.9435600152681403 2.4971061498112754 3.9350226152681405 2.508397549811275 3.9350226152681405 2.5229937498112753 C 3.9350226152681405 2.532081949811275 3.9372258152681403 2.537865349811275 3.94989421526814 2.565405349811275 C 3.9543006152681404 2.575044349811275 3.9573300152681403 2.5866111498112754 3.9587070152681405 2.6001057498112754 C 3.9452124152681405 2.598728749811275 3.9314424152681404 2.594597749811275 3.9168462152681403 2.587161949811275 C 3.9025251857681402 2.5800015498112754 3.8906829857681404 2.5764213498112754 3.8815947857681405 2.5764213498112754 C 3.8672739857681404 2.5764213498112754 3.85570718576814 2.5860603498112753 3.85570718576814 2.6034105498112754 C 3.85570718576814 2.620760749811275 3.8669985857681404 2.630399749811275 3.8815947857681405 2.630399749811275 C 3.8915091857681405 2.630399749811275 3.8975679857681405 2.628196549811275 3.9240066152681403 2.6160789498112753 C 3.9336456152681403 2.611672549811275 3.9452124152681405 2.608643149811275 3.9587070152681405 2.607266149811275 C 3.9567792152681402 2.623790149811275 3.9523728152681405 2.638386349811275 3.9454878152681405 2.651605549811275 C 3.9386028152681405 2.664549349811275 3.9350226152681405 2.675289949811275 3.9350226152681405 2.683827349811275 C 3.9350226152681405 2.6989743498112753 3.9443862152681404 2.710265749811275 3.9625626152681406 2.710265749811275 Z" fill="#ffffff" transform="matrix(1,0,0,1,0,0)" fill-rule="nonzero"></path></g></g></g><defs><clipPath id="SvgjsClipPath25326"><path d=" M 0 0 h 2.9476692228475905 v 2.878925508809126 h -2.9476692228475905 Z"></path></clipPath><clipPath id="SvgjsClipPath25322ad82943f-9dae-4db7-ba0d-146a28ea0675"><path d=" M 0 0 L 2.9476692228475905 0 L 2.9476692228475905 2.878925508809126 L 0 2.878925508809126 Z"></path></clipPath><clipPath id="SvgjsClipPath25327"><path d=" M -1.1752645499205494 2.4314691498112753 h 0.3212999999999999 v 0.3212999999999999 h -0.3212999999999999 Z"></path></clipPath><clipPath id="SvgjsClipPath25328"><path d=" M 3.8016337727681404 2.4314691498112753 h 0.3212999999999999 v 0.3212999999999999 h -0.3212999999999999 Z"></path></clipPath></defs></svg>